<svg viewBox="54.699 79.084 390.603 341.832" width="390.603" height="341.832" xmlns="http://www.w3.org/2000/svg">
  <path d="M 354.086 79.084 L 402.473 79.084 L 402.473 125.069 L 445.302 125.069 L 445.302 173.456 L 402.473 173.456 L 402.473 320.318 L 402.425 320.318 C 402.132 325.128 398.082 372.687 352.606 372.476 C 348.372 372.476 343.676 372.476 338.585 372.476 L 350.637 420.916 L 296.452 420.916 L 287.168 372.476 C 262.864 372.476 235.948 372.476 209.499 372.476 L 200.293 420.51 L 146.108 420.51 L 158.059 372.476 C 154.596 372.476 151.183 372.476 147.83 372.476 C 104.66 372.476 103.433 330.115 103.65 321.234 L 103.622 321.234 L 103.622 173.456 L 54.699 173.456 L 54.699 125.069 L 103.622 125.069 L 103.622 80 L 152.009 80 L 152.009 125.069 L 219.615 125.069 L 230.619 80.841 L 261.383 81.321 L 266.126 81.247 L 277.029 125.069 L 354.086 125.069 L 354.086 79.084 Z M 152.009 319.664 L 171.194 319.684 L 207.576 173.456 L 152.009 173.456 L 152.009 319.664 Z M 219.608 319.735 L 277.071 319.795 L 249.023 173.456 L 247.644 173.456 L 219.608 319.735 Z M 354.086 319.876 L 354.086 173.456 L 289.068 173.456 L 325.49 319.846 L 354.086 319.876 Z" style="stroke: rgba(0, 0, 0, 0); fill: skyblue;"></path>
</svg>